<svg xmlns="http://www.w3.org/2000/svg" viewBox="0 0 100 100">
  <circle cx="50" cy="50" r="48" fill="#FCE4EC"/>
  <path d="M50,82 C34,68 22,58 22,44 C22,32 32,24 44,27
           C47,28 49,29 50,30 C51,29 53,28 56,27
           C68,24 78,32 78,44 C78,58 66,68 50,82Z" fill="#E53935"/>
  <path d="M44,27 C43,20 46,16 50,14 C54,16 57,20 56,27" fill="#4CAF50"/>
  <circle cx="40" cy="48" r="2.5" fill="#FFCDD2"/>
  <circle cx="55" cy="44" r="2.5" fill="#FFCDD2"/>
  <circle cx="48" cy="60" r="2.5" fill="#FFCDD2"/>
  <circle cx="62" cy="54" r="2.5" fill="#FFCDD2"/>
</svg>
