<svg xmlns="http://www.w3.org/2000/svg" viewBox="0 0 100 100">
  <circle cx="50" cy="50" r="48" fill="#1A0D3C"/>
  <g stroke-linecap="round" stroke-width="2.5">
    <line x1="50" y1="50" x2="50" y2="26" stroke="#FF5252"/>
    <line x1="50" y1="50" x2="50" y2="74" stroke="#FF5252"/>
    <line x1="50" y1="50" x2="26" y2="50" stroke="#FF9800"/>
    <line x1="50" y1="50" x2="74" y2="50" stroke="#FF9800"/>
    <line x1="50" y1="50" x2="33" y2="33" stroke="#FFD600"/>
    <line x1="50" y1="50" x2="67" y2="67" stroke="#FFD600"/>
    <line x1="50" y1="50" x2="33" y2="67" stroke="#69F0AE"/>
    <line x1="50" y1="50" x2="67" y2="33" stroke="#69F0AE"/>
    <line x1="50" y1="50" x2="40" y2="28" stroke="#FF80AB"/>
    <line x1="50" y1="50" x2="60" y2="28" stroke="#FF80AB"/>
    <line x1="50" y1="50" x2="72" y2="40" stroke="#40C4FF"/>
    <line x1="50" y1="50" x2="72" y2="60" stroke="#40C4FF"/>
  </g>
  <circle cx="50" cy="26" r="3" fill="#FF5252"/>
  <circle cx="50" cy="74" r="3" fill="#FF5252"/>
  <circle cx="26" cy="50" r="3" fill="#FF9800"/>
  <circle cx="74" cy="50" r="3" fill="#FF9800"/>
  <circle cx="33" cy="33" r="3" fill="#FFD600"/>
  <circle cx="67" cy="67" r="3" fill="#FFD600"/>
  <circle cx="33" cy="67" r="2.5" fill="#69F0AE"/>
  <circle cx="67" cy="33" r="2.5" fill="#69F0AE"/>
  <circle cx="50" cy="50" r="5"   fill="white"/>
</svg>
