<svg xmlns="http://www.w3.org/2000/svg" viewBox="0 0 100 100">
  <circle cx="50" cy="50" r="48" fill="#E3F2FD"/>
  <path d="M14,65 Q26,55 38,65 Q50,75 62,65 Q74,55 86,65 L86,86 L14,86Z" fill="#1E88E5"/>
  <path d="M14,60 Q26,50 38,60 Q50,70 62,60 Q74,50 86,60" fill="none" stroke="#42A5F5" stroke-width="3"/>
  <path d="M36,52 Q38,40 42,34 Q44,30 46,34 Q44,42 46,52" fill="#90CAF9" opacity="0.8"/>
  <path d="M54,48 Q56,36 60,30 Q62,26 64,30 Q62,38 64,48" fill="#90CAF9" opacity="0.8"/>
  <circle cx="40" cy="30" r="3" fill="#90CAF9" opacity="0.7"/>
  <circle cx="52" cy="24" r="2" fill="#BBDEFB" opacity="0.7"/>
  <circle cx="62" cy="26" r="3" fill="#90CAF9" opacity="0.6"/>
  <circle cx="44" cy="22" r="2" fill="#BBDEFB" opacity="0.5"/>
</svg>
