<svg xmlns="http://www.w3.org/2000/svg" viewBox="0 0 100 100">
  <circle cx="50" cy="50" r="48" fill="#FFF3E0"/>
  <path d="M50,12 C44,28 26,32 30,54 C33,68 40,76 50,86
           C60,76 67,68 70,54 C74,32 56,28 50,12Z" fill="#FF5722"/>
  <path d="M50,28 C46,40 34,44 37,60 C39,70 44,76 50,84
           C56,76 61,70 63,60 C66,44 54,40 50,28Z" fill="#FF9800"/>
  <path d="M50,46 C47,54 42,57 44,66 C45,72 47,76 50,80
           C53,76 55,72 56,66 C58,57 53,54 50,46Z" fill="#FFC107"/>
  <ellipse cx="46" cy="60" rx="3" ry="6" fill="#FFE082" opacity="0.7"/>
</svg>
