<svg xmlns="http://www.w3.org/2000/svg" viewBox="0 0 100 100">
  <circle cx="50" cy="50" r="48" fill="#E8F5E9"/>
  <path d="M14,70 A36,36 0 0 1 86,70" fill="none" stroke="#EF5350" stroke-width="6"/>
  <path d="M18,70 A32,32 0 0 1 82,70" fill="none" stroke="#FF9800" stroke-width="6"/>
  <path d="M22,70 A28,28 0 0 1 78,70" fill="none" stroke="#FFEB3B" stroke-width="6"/>
  <path d="M26,70 A24,24 0 0 1 74,70" fill="none" stroke="#4CAF50" stroke-width="6"/>
  <path d="M30,70 A20,20 0 0 1 70,70" fill="none" stroke="#2196F3" stroke-width="6"/>
  <path d="M34,70 A16,16 0 0 1 66,70" fill="none" stroke="#9C27B0" stroke-width="6"/>
  <path d="M16,72 L84,72 Q84,80 50,80 Q16,80 16,72Z" fill="#E8F5E9"/>
</svg>
